# xmcd
#
# Track frame offsets: 
#        150
#        13075
#        23525
#        36896
#        51993
#        68770
#        89935
#        103260
#        124500
#        136218
#        149386
#        159457
#
# Disc length: 2317 seconds
#
# Revision: 0
# Processed by: cddbd v1.5.2PL0 Copyright (c) Steve Scherf et al.
# Submitted via: ExactAudioCopy v1.0b4
#
DISCID=a6090b0c
DTITLE=John Mayall and The Bluesbreakers  - So Many Roads (LP)
DYEAR=1968
DGENRE=Blues
TTITLE0=Mr. James
TTITLE1=Blues City Shakedown
TTITLE2=I Need Your Love
TTITLE3=Double Trouble
TTITLE4=Rubber Duck
TTITLE5=So Many Roads
TTITLE6=Sitting In The Rain
TTITLE7=Out Of Reach
TTITLE8=Looking Back
TTITLE9=It Hurts Me Too
TTITLE10=Crocodile Walk
TTITLE11=Curly
EXTD=
EXTT0=
EXTT1=
EXTT2=
EXTT3=
EXTT4=
EXTT5=
EXTT6=
EXTT7=
EXTT8=
EXTT9=
EXTT10=
EXTT11=
PLAYORDER=
